<?xml version="1.0" standalone="no"?>
<!DOCTYPE svg PUBLIC "-//W3C//DTD SVG 20010904//EN"
 "http://www.w3.org/TR/2001/REC-SVG-20010904/DTD/svg10.dtd">
<svg version="1.0" xmlns="http://www.w3.org/2000/svg"
 width="512.000000pt" height="512.000000pt" viewBox="0 0 512.000000 512.000000"
 preserveAspectRatio="xMidYMid meet">
<metadata>
Created by potrace 1.11, written by Peter Selinger 2001-2013
</metadata>
<g transform="translate(0.000000,512.000000) scale(0.100000,-0.100000)"
fill="#000000" stroke="none">
<path d="M2387 5074 c-1 -1 -36 -4 -77 -8 -41 -3 -84 -8 -95 -10 -11 -2 -42
-7 -70 -11 -27 -5 -52 -9 -55 -10 -5 -1 -114 -25 -135 -30 -57 -11 -219 -65
-320 -105 -84 -33 -298 -138 -343 -169 -15 -9 -72 -47 -127 -84 -55 -37 -112
-77 -127 -89 -14 -13 -59 -50 -98 -83 -69 -57 -290 -282 -290 -295 0 -3 447
-5 993 -4 985 1 992 1 1050 22 160 58 276 191 301 346 8 44 13 41 20 -11 19
-140 144 -281 297 -334 63 -22 73 -22 602 -23 296 -1 541 2 543 6 6 10 -252
270 -333 336 -245 199 -531 353 -830 448 l-102 32 -37 -31 c-73 -63 -143 -194
-145 -271 0 -22 -6 -9 -22 44 -51 170 -170 290 -325 326 -42 10 -265 17 -275
8z"/>
<path d="M526 4017 c-104 -138 -249 -422 -321 -632 -23 -66 -65 -217 -65 -232
0 -10 126 -13 598 -12 328 0 620 5 647 10 149 27 284 146 336 294 17 50 17 50
25 20 31 -130 163 -262 304 -305 58 -18 131 -18 1495 -18 l1433 -1 -19 72
c-73 268 -178 505 -324 729 l-69 105 -1215 0 c-668 0 -1235 -4 -1260 -9 -126
-23 -263 -129 -315 -241 -14 -32 -26 -64 -26 -72 0 -7 -4 -17 -10 -20 -5 -3
-10 1 -10 11 0 36 -66 147 -118 200 -57 57 -145 105 -222 121 -25 5 -224 10
-443 10 l-397 1 -24 -31z"/>
<path d="M840 3007 c-75 -9 -176 -53 -229 -99 -87 -76 -146 -185 -151 -278 -1
-15 -11 6 -24 51 -40 134 -123 233 -241 290 -69 33 -94 36 -93 12 0 -10 -2
-34 -6 -53 -21 -123 -24 -180 -21 -395 4 -297 16 -397 47 -403 33 -6 133 52
193 112 62 62 103 134 126 216 l12 45 12 -50 c37 -155 153 -279 306 -326 59
-18 128 -19 2144 -19 1146 0 2086 4 2089 8 2 4 8 35 11 67 4 33 9 69 11 80 22
115 21 496 -1 600 -3 11 -7 40 -9 66 -6 56 -15 79 -30 80 -77 5 -4099 2 -4146
-4z"/>
<path d="M145 1943 c7 -38 59 -210 74 -248 5 -11 21 -51 37 -90 58 -148 194
-399 270 -500 l23 -31 398 2 c279 1 411 5 443 14 158 43 283 169 323 327 l13
52 22 -72 c45 -143 153 -254 290 -298 l67 -22 1229 -1 1229 -1 42 60 c146 206
293 530 359 788 l14 57 -1457 -2 -1457 -3 -75 -37 c-122 -61 -207 -160 -244
-286 l-19 -63 -18 67 c-42 153 -173 277 -329 313 -27 7 -275 11 -643 11 l-598
0 7 -37z"/>
<path d="M672 918 c12 -18 72 -83 133 -144 237 -238 506 -419 809 -546 139
-58 343 -120 471 -142 17 -3 39 -8 50 -10 11 -2 40 -7 65 -10 25 -3 56 -8 70
-11 61 -12 311 -16 360 -6 263 56 417 339 326 598 -36 101 -115 192 -216 247
-102 56 -101 56 -1138 56 l-953 0 23 -32z"/>
<path d="M3389 946 c-2 -2 -20 -7 -39 -10 -174 -27 -331 -202 -349 -389 -13
-140 27 -261 121 -362 l56 -60 68 18 c291 78 637 264 901 485 108 91 283 266
306 307 7 13 -55 15 -526 15 -293 0 -536 -2 -538 -4z"/>
</g>
</svg>
