<svg xmlns="http://www.w3.org/2000/svg" xmlns:xlink="http://www.w3.org/1999/xlink" viewBox="0 0 256.3 56.96"><defs><style>.cls-1{fill:#8abc00;}.cls-2{fill:#003c9f;}.cls-3{fill:url(#radial-gradient);}.cls-4{fill:url(#radial-gradient-2);}.cls-5{fill:url(#radial-gradient-3);}.cls-6{fill:url(#radial-gradient-4);}.cls-7{fill:url(#radial-gradient-5);}.cls-8{fill:url(#radial-gradient-6);}.cls-9{fill:url(#radial-gradient-7);}.cls-10{fill:url(#radial-gradient-8);}.cls-11{fill:url(#radial-gradient-9);}.cls-12{fill:url(#radial-gradient-10);}</style><radialGradient id="radial-gradient" cx="7.38" cy="11.23" r="44.45" gradientUnits="userSpaceOnUse"><stop offset="0" stop-color="#edf4bf"/><stop offset="0.03" stop-color="#ebf3b8"/><stop offset="0.07" stop-color="#e6f0a6"/><stop offset="0.12" stop-color="#deec88"/><stop offset="0.18" stop-color="#d3e65e"/><stop offset="0.23" stop-color="#c5df29"/><stop offset="0.27" stop-color="#bad900"/><stop offset="1" stop-color="#5ca100"/></radialGradient><radialGradient id="radial-gradient-2" cx="7.38" cy="11.23" r="44.45" gradientUnits="userSpaceOnUse"><stop offset="0" stop-color="#caeef8"/><stop offset="0.03" stop-color="#c6edf8"/><stop offset="0.06" stop-color="#b9eaf6"/><stop offset="0.1" stop-color="#a3e5f5"/><stop offset="0.13" stop-color="#84dff2"/><stop offset="0.17" stop-color="#5dd6ee"/><stop offset="0.2" stop-color="#2eccea"/><stop offset="0.23" stop-color="#00c2e6"/><stop offset="1" stop-color="#003c9f"/></radialGradient><radialGradient id="radial-gradient-3" cx="7.38" cy="11.24" r="44.44" xlink:href="#radial-gradient"/><radialGradient id="radial-gradient-4" cx="7.38" cy="11.24" r="44.45" xlink:href="#radial-gradient"/><radialGradient id="radial-gradient-5" cx="7.38" cy="11.24" r="44.44" xlink:href="#radial-gradient-2"/><radialGradient id="radial-gradient-6" cx="7.38" cy="11.23" r="44.45" xlink:href="#radial-gradient"/><radialGradient id="radial-gradient-7" cx="7.38" cy="11.23" r="44.44" xlink:href="#radial-gradient-2"/><radialGradient id="radial-gradient-8" cx="7.38" cy="11.23" r="44.45" xlink:href="#radial-gradient"/><radialGradient id="radial-gradient-9" cx="7.38" cy="11.23" r="44.45" xlink:href="#radial-gradient-2"/><radialGradient id="radial-gradient-10" cx="7.38" cy="11.23" r="44.45" xlink:href="#radial-gradient-2"/></defs><title>アセット 2</title><g id="レイヤー_2" data-name="レイヤー 2"><g id="横"><path class="cls-1" d="M97.15,32.73H77.6v4.49c0,1.84,1.54,2.77,4.64,2.77H98.32v5.6H80.61A13.63,13.63,0,0,1,73.38,44a6,6,0,0,1-3-5.36v-17A6.34,6.34,0,0,1,73,16.27a11.54,11.54,0,0,1,7.07-1.95H98.32v5.61H82.18c-3.06,0-4.58.9-4.58,2.71v4.55H97.15Z"/><path class="cls-2" d="M136.76,41.37a3.93,3.93,0,0,1-1.32,3,6.3,6.3,0,0,1-7.35.34,12.66,12.66,0,0,1-1.87-2.53l-13.4-20.39V45.35h-6.33V19.27c0-3.14,1.73-4.7,5.18-4.7a5.5,5.5,0,0,1,3.56,1,11.14,11.14,0,0,1,1.93,2.53l13.28,20.33V14.84h6.32Z"/><path class="cls-2" d="M172.56,17.76a2.72,2.72,0,0,1-.79,2L152.59,40.29h19.22v5H150.12a16.57,16.57,0,0,1-3-.24,4.25,4.25,0,0,1-2.17-1.1,2.56,2.56,0,0,1-.9-1.88,3.62,3.62,0,0,1,1.14-2.32l18.76-20.18H144.7v-5h23.22Q172.56,14.57,172.56,17.76Z"/><path class="cls-2" d="M186.43,45.29h-6.6V14.48h6.6Z"/><path d="M203.26,37.64h-5.13a2.41,2.41,0,0,0-1.14.2.88.88,0,0,0-.38.75v4.54A1,1,0,0,0,197,44a2.24,2.24,0,0,0,1.26.25h5v1.59h-5.73a3.65,3.65,0,0,1-2.21-.59,2,2,0,0,1-.8-1.66V38.28a1.91,1.91,0,0,1,.86-1.77,4.35,4.35,0,0,1,2.31-.46h5.59Z"/><path d="M214.84,44a1.74,1.74,0,0,1-.93,1.58,3.52,3.52,0,0,1-1.86.4h-2.93a3.67,3.67,0,0,1-2.14-.53,1.68,1.68,0,0,1-.73-1.45v-3.6a1.82,1.82,0,0,1,.94-1.63,3.81,3.81,0,0,1,1.93-.4h2.93a3.59,3.59,0,0,1,1.89.4,1.79,1.79,0,0,1,.9,1.63Zm-2.08-.34V40.7a.58.58,0,0,0-.31-.56,1.52,1.52,0,0,0-.87-.19h-2a1.75,1.75,0,0,0-.93.19.61.61,0,0,0-.32.56v2.92a.58.58,0,0,0,.32.53,1.5,1.5,0,0,0,.81.18h2.24a1.29,1.29,0,0,0,.76-.18A.55.55,0,0,0,212.76,43.63Z"/><path d="M219.1,45a1,1,0,0,1-.27.71.86.86,0,0,1-.66.29.88.88,0,0,1-.66-.29,1,1,0,0,1-.28-.69,1.08,1.08,0,0,1,.26-.72.84.84,0,0,1,.66-.3.88.88,0,0,1,.67.29A1,1,0,0,1,219.1,45Z"/><path d="M223.42,45.8a1.38,1.38,0,0,1-.12.52L222.59,48h-1.1l.62-1.42a1.21,1.21,0,0,1-.44-.79,1,1,0,0,1,.26-.67.83.83,0,0,1,.63-.27.76.76,0,0,1,.61.3A1.07,1.07,0,0,1,223.42,45.8Z"/><path d="M234.87,45.85h-5.18a5.3,5.3,0,0,1-2.63-.53,2,2,0,0,1-.93-1.87v-7.4h2.11v7.07a1,1,0,0,0,.42.94,3.29,3.29,0,0,0,1.47.21h4.74Z"/><path d="M240.84,40h-2.15v5.9h-1.88V36h1.88v2.51h2.15Z"/><path d="M252.05,36.05v7.68a1.74,1.74,0,0,1-.83,1.63,3.81,3.81,0,0,1-2,.49h-3c-1.78,0-2.67-.69-2.67-2.06V40.33a1.77,1.77,0,0,1,.72-1.48,3.14,3.14,0,0,1,1.93-.55h3.94V36.05Zm-1.88,7.51V40c0-.14-.11-.21-.32-.21h-3.11c-.85,0-1.28.31-1.28.94v2.78a.82.82,0,0,0,.22.67,1.67,1.67,0,0,0,1.06.26h2C249.71,44.4,250.17,44.12,250.17,43.56Z"/><path d="M256.3,45a1.07,1.07,0,0,1-.26.71.91.91,0,0,1-1.33,0,1,1,0,0,1-.27-.69,1,1,0,0,1,.26-.72.83.83,0,0,1,.66-.3.92.92,0,0,1,.67.29A1,1,0,0,1,256.3,45Z"/><path class="cls-3" d="M13.87,11.68H5.48A28.55,28.55,0,0,0,.77,21.91h13.1a5.12,5.12,0,1,0,0-10.23Z"/><path class="cls-4" d="M9.49,33.59h47a28,28,0,0,0,0-10.22h-47a5.11,5.11,0,0,0,0,10.22Z"/><path class="cls-5" d="M4.38,28.48a5.1,5.1,0,0,0-3.94-5,28.29,28.29,0,0,0,0,9.94A5.1,5.1,0,0,0,4.38,28.48Z"/><path class="cls-6" d="M28.48,46.73H6.62A28.43,28.43,0,0,0,28.48,57h0a5.12,5.12,0,0,0,0-10.23Z"/><path class="cls-7" d="M50.33,46.73H38.7a5.11,5.11,0,0,0-3,9.29A28.51,28.51,0,0,0,50.33,46.73Z"/><path class="cls-8" d="M6.62,10.22H28.48A5.11,5.11,0,1,0,28.48,0,28.46,28.46,0,0,0,6.62,10.22Z"/><path class="cls-9" d="M38.7,10.22H50.33A28.56,28.56,0,0,0,35.75.94a5.11,5.11,0,0,0,3,9.28Z"/><path class="cls-10" d="M19,40.16a5.11,5.11,0,0,0-5.12-5.11H.77A28.43,28.43,0,0,0,5.48,45.27h8.39A5.11,5.11,0,0,0,19,40.16Z"/><path class="cls-11" d="M24.1,45.27H51.47a28.28,28.28,0,0,0,4.72-10.22H24.1a5.11,5.11,0,0,0,0,10.22Z"/><path class="cls-12" d="M19,16.79a5.11,5.11,0,0,0,5.11,5.12H56.19a28.4,28.4,0,0,0-4.72-10.23H24.1A5.11,5.11,0,0,0,19,16.79Z"/></g></g></svg>